<?xml version="1.0" encoding="utf-8" ?>
<svg xmlns="http://www.w3.org/2000/svg" xmlns:xlink="http://www.w3.org/1999/xlink" width="1078" height="1078">
	<defs>
		<linearGradient id="gradient_0" gradientUnits="userSpaceOnUse" x1="120.99924" y1="413.52576" x2="390.3649" y2="142.85469">
			<stop offset="0" stop-color="#68A4F7"/>
			<stop offset="1" stop-color="#8CCFF7"/>
		</linearGradient>
	</defs>
	<path fill="url(#gradient_0)" transform="scale(2.10552 2.10552)" d="M232.649 85.733L232.624 69.6842C232.626 60.7263 231.982 51.0605 238.826 44.1833C247.548 35.4177 263.055 35.0787 271.88 43.9229C278.709 50.7673 278.617 59.0283 278.628 68.0637L278.611 82.3697C278.651 84.0963 278.683 85.8113 278.611 87.5374C300.384 89.2566 321.435 97.7919 341.355 106.118C342.163 106.554 342.967 107.024 343.797 107.415C344.764 106.793 343.53 104.692 343.148 103.873L342.244 103.866L351.999 93.9978C363.113 82.6991 370.807 74.6143 384.623 88.4322C392.122 95.9325 399.691 103.591 407.04 111.232C421.47 126.233 423.31 130.147 407.583 145.781C405.379 147.972 402.777 151.067 399.625 151.744C408.143 161.819 416.077 172.678 422.61 184.148C465.036 258.63 451.493 355.211 390.168 415.231C302.887 500.655 160.931 484.859 94.8799 382.051C50.7283 313.33 55.2565 224.084 105.108 159.758C107.004 157.312 109.07 154.988 110.938 152.526C110.154 151.741 109.167 151.409 108.472 150.467C104.677 145.99 98.1338 141.535 95.1672 136.816C88.4013 126.053 99.5716 118.076 105.954 111.613L122.893 94.7067C130.188 87.3863 138.272 76.3932 149.729 84.6513C153.306 87.2295 168.151 102.391 170.479 106.118C191.073 95.8609 210.34 91.0696 232.649 87.5374L232.649 85.733Z"/>
	<path fill="#B6E5F8" transform="scale(2.10552 2.10552)" d="M342.244 103.866L351.999 93.9978C363.113 82.6991 370.807 74.6143 384.623 88.4322C392.122 95.9325 399.691 103.591 407.04 111.232C421.47 126.233 423.31 130.147 407.583 145.781C405.379 147.972 402.777 151.067 399.625 151.744C397.19 149.548 395.163 146.803 392.841 144.468C375.641 127.175 363.547 119.827 343.797 107.415C344.764 106.793 343.53 104.692 343.148 103.873L342.244 103.866Z"/>
	<path fill="#B6E5F8" transform="scale(2.10552 2.10552)" d="M108.472 150.467C104.677 145.99 98.1338 141.535 95.1672 136.816C88.4013 126.053 99.5716 118.076 105.954 111.613L122.893 94.7067C130.188 87.3863 138.272 76.3932 149.729 84.6513C153.306 87.2295 168.151 102.391 170.479 106.118C150.859 115.396 133.792 128.764 118.724 144.236C117.451 145.543 115.896 147.629 114.419 148.559L110.938 152.526C110.154 151.741 109.167 151.409 108.472 150.467Z"/>
	<path fill="white" transform="scale(2.10552 2.10552)" d="M108.472 150.467C110.248 149.772 112.331 149.699 113.86 148.469L114.419 148.559L110.938 152.526C110.154 151.741 109.167 151.409 108.472 150.467Z"/>
	<defs>
		<linearGradient id="gradient_1" gradientUnits="userSpaceOnUse" x1="254.26744" y1="37.933701" x2="256.04153" y2="85.229477">
			<stop offset="0" stop-color="#B3DAED"/>
			<stop offset="1" stop-color="#71A8F6"/>
		</linearGradient>
	</defs>
	<path fill="url(#gradient_1)" transform="scale(2.10552 2.10552)" d="M232.649 85.733L232.624 69.6842C232.626 60.7263 231.982 51.0605 238.826 44.1833C247.548 35.4177 263.055 35.0787 271.88 43.9229C278.709 50.7673 278.617 59.0283 278.628 68.0637L278.611 82.3697L278.611 84.0806C277.439 79.149 273.084 84.4267 271.57 82.389L271.43 82.4065L270.976 83.0363C268.43 83.4394 265.564 83.1015 262.959 83.2378C257.711 83.5122 252.897 84.11 247.385 84.3583C244.534 84.4867 237.823 86.3208 235.397 86.0308C234.428 85.9149 233.832 84.7444 232.937 84.6704L232.937 85.5287L232.649 85.733Z"/>
	<path fill="#8DB0F7" transform="scale(2.10552 2.10552)" d="M232.649 85.733L232.937 85.5287L232.937 84.6704C233.832 84.7444 234.428 85.9149 235.397 86.0308C237.823 86.3208 244.534 84.4867 247.385 84.3583C252.897 84.11 257.711 83.5122 262.959 83.2378C265.564 83.1015 268.43 83.4394 270.976 83.0363L271.43 82.4065L271.57 82.389C273.084 84.4267 277.439 79.149 278.611 84.0806C278.741 85.2446 278.674 86.3728 278.611 87.5374C262.906 86.492 248.453 86.233 232.649 87.5374L232.649 85.733Z"/>
	<defs>
		<linearGradient id="gradient_2" gradientUnits="userSpaceOnUse" x1="141.25403" y1="353.72894" x2="369.81232" y2="202.72273">
			<stop offset="0" stop-color="#AACDF5"/>
			<stop offset="1" stop-color="#DAEEEF"/>
		</linearGradient>
	</defs>
	<path fill="url(#gradient_2)" transform="scale(2.10552 2.10552)" d="M247 139.235C318.212 134.763 382.298 188.758 391.598 259.738C400.505 327.727 357.639 396.476 290.087 413.096C282.013 415.082 273.664 415.959 265.433 417.025C230.689 418.934 196.201 407.532 169.182 385.817C110.738 338.843 103.702 247.295 150.214 189.644C175.383 158.447 207.612 143.474 247 139.235Z"/>
	<defs>
		<linearGradient id="gradient_3" gradientUnits="userSpaceOnUse" x1="216.98918" y1="339.54431" x2="292.82709" y2="213.09518">
			<stop offset="0" stop-color="#83B6F6"/>
			<stop offset="1" stop-color="#9AD8F3"/>
		</linearGradient>
	</defs>
	<path fill="url(#gradient_3)" transform="scale(2.10552 2.10552)" d="M282.737 209.548C290.11 208.999 297.049 214.926 294.075 222.847C290.479 232.424 285.057 241.565 280.319 250.616L260.645 288.649C254.134 301.151 247.832 313.768 241.109 326.159C237.442 332.918 235.372 341.479 226.854 343.065C221.365 343.328 216.117 340.901 214.825 335.096C213.444 328.893 221.329 318.484 224.119 313.181L258.861 246.429C260.379 243.489 262.159 240.691 263.651 237.734L271.351 222.392C274.138 216.945 276.102 211.009 282.737 209.548Z"/>
	<path fill="#A7CAF7" transform="scale(2.10552 2.10552)" d="M323.633 242.535C330.082 239.335 340.493 254.551 344.17 258.465C347.583 262.099 363.781 276.777 362.509 281.481C361.621 284.767 333.225 312.975 328.853 315.875C325.126 317.721 319.646 317.422 316.567 314.439C307.766 305.914 317.373 298.464 323.122 292.927C327.433 288.775 332.031 284.4 336.019 279.952C333.458 277.379 331.067 274.633 328.546 272.019C322.088 265.322 306.464 254.071 316.753 244.429C318.802 242.508 321.001 242.449 323.633 242.535Z"/>
	<path fill="#8DB0F7" transform="scale(2.10552 2.10552)" d="M187.595 242.535C193.519 242.267 198.579 245.866 199.32 251.971C199.952 257.183 195.238 261.122 191.97 264.438L183.577 273.047C181.507 275.161 179.3 277.178 177.542 279.568L177.263 279.952C182.345 284.451 193.042 294.827 197.013 300.145C203.025 308.197 195.784 315.167 187.595 315.875C180.102 313.211 160.521 292.631 155.813 286.445C148.167 276.402 158.45 269.214 164.726 262.596L175.354 251.398C179.127 247.484 182.107 243.891 187.595 242.535Z"/>
</svg>
